<?xml version="1.0" encoding="UTF-8" standalone="no"?>
<svg
   xmlns:dc="http://purl.org/dc/elements/1.1/"
   xmlns:cc="http://creativecommons.org/ns#"
   xmlns:rdf="http://www.w3.org/1999/02/22-rdf-syntax-ns#"
   xmlns:svg="http://www.w3.org/2000/svg"
   xmlns="http://www.w3.org/2000/svg"
   viewBox="0 0 4233.1465 615.95203"
   height="615.95203"
   width="4233.1465"
   xml:space="preserve"
   id="svg2"
   version="1.1"><metadata
     id="metadata8"><rdf:RDF><cc:Work
         rdf:about=""><dc:format>image/svg+xml</dc:format><dc:type
           rdf:resource="http://purl.org/dc/dcmitype/StillImage" /></cc:Work></rdf:RDF></metadata><defs
     id="defs6"><clipPath
       id="clipPath18"
       clipPathUnits="userSpaceOnUse"><path
         id="path16"
         d="M 0,461.964 H 3174.859 V 0 H 0 Z" /></clipPath></defs><g
     transform="matrix(1.3333333,0,0,-1.3333333,0,615.952)"
     id="g10"><g
       id="g12"><g
         clip-path="url(#clipPath18)"
         id="g14"><g
           transform="translate(733.4878,5.5391)"
           id="g20"><path
             id="path22"
             style="fill:#142649;fill-opacity:1;fill-rule:nonzero;stroke:none"
             d="m 0,0 h -154.528 v 15.215 c 8.06,2.795 16.222,5.246 24.471,7.344 8.249,2.097 17.134,3.843 26.672,5.246 v 312.144 h -84.138 l -29.146,-75.02 h -13.748 c -1.101,6.992 -2.02,14.951 -2.75,23.87 -0.739,8.918 -1.375,18.009 -1.925,27.28 -0.55,9.262 -1.014,18.361 -1.375,27.28 -0.369,8.918 -0.55,16.869 -0.55,23.869 H 82.489 c 0,-7 -0.189,-14.869 -0.559,-23.607 -0.369,-8.746 -0.833,-17.755 -1.392,-27.018 -0.558,-9.27 -1.117,-18.361 -1.667,-27.279 -0.558,-8.919 -1.392,-17.05 -2.5,-24.395 H 61.91 l -28.914,75.02 H -50.593 V 27.805 c 9.53,-1.754 18.423,-3.5 26.672,-5.246 C -15.672,20.805 -7.699,18.361 0,15.215 Z" /></g><g
           transform="translate(1069.8364,328.6997)"
           id="g24"><path
             id="path26"
             style="fill:#142649;fill-opacity:1;fill-rule:nonzero;stroke:none"
             d="m 0,0 c -0.325,-12.313 -0.892,-24.698 -1.694,-37.163 -0.809,-12.465 -2.018,-25.009 -3.629,-37.625 h -12.582 l -19.842,50.782 h -105.497 v -122.338 h 78.881 l 18.873,34.162 h 12.099 c 1.935,-30.471 1.935,-61.559 0,-93.256 H -45.49 l -18.873,35.086 h -78.881 v -128.803 h 111.305 l 23.712,55.401 H 3.872 c 2.253,-12.928 3.871,-26.012 4.839,-39.243 0.968,-13.236 1.126,-26.623 0.484,-40.164 h -238.579 v 13.389 c 11.289,4.92 24.514,8.613 39.682,11.08 v 273.763 c -6.457,1.226 -13.066,2.842 -19.84,4.847 -6.776,1.998 -13.392,4.228 -19.842,6.694 l 0,13.388 z" /></g><g
           transform="translate(1180.6499,37.3945)"
           id="g28"><path
             id="path30"
             style="fill:#142649;fill-opacity:1;fill-rule:nonzero;stroke:none"
             d="m 0,0 c 3.872,-3.693 8.87,-6.854 15.002,-9.465 6.125,-2.619 15.319,-3.924 27.584,-3.924 10.322,0 20,1.305 29.036,3.924 9.028,2.611 16.855,6.463 23.471,11.541 6.609,5.078 11.856,11.233 15.728,18.467 3.871,7.228 5.807,15.465 5.807,24.699 0,12.307 -3.955,22.621 -11.857,30.932 -7.909,8.308 -17.746,15.695 -29.52,22.158 -11.78,6.463 -24.605,12.768 -38.472,18.928 -13.875,6.154 -26.699,13.461 -38.473,21.929 -11.781,8.461 -21.618,18.618 -29.519,30.469 -7.91,11.846 -11.857,26.698 -11.857,44.55 0,12.927 2.42,24.468 7.259,34.625 4.839,10.157 11.69,18.769 20.567,25.853 8.87,7.076 19.433,12.537 31.698,16.389 12.257,3.844 25.966,5.77 41.134,5.77 19.675,0 37.663,-1.464 53.958,-4.386 16.288,-2.928 29.112,-6.542 38.473,-10.848 0,-5.237 -0.408,-11.311 -1.209,-18.236 -0.81,-6.924 -1.778,-14.081 -2.904,-21.467 -1.135,-7.386 -2.344,-14.542 -3.63,-21.467 -1.293,-6.925 -2.586,-13.006 -3.871,-18.235 h -12.582 l -19.358,63.247 c -5.867,2.46 -13.27,4.306 -22.223,5.54 -8.952,1.226 -18.48,1.846 -28.567,1.846 -16.605,0 -29.959,-4.385 -40.053,-13.157 C 5.527,250.911 0.484,238.676 0.484,222.98 c 0,-12.623 3.97,-23.241 11.924,-31.855 7.955,-8.619 17.936,-16.316 29.944,-23.082 12.007,-6.773 24.915,-13.316 38.707,-19.621 13.792,-6.311 26.691,-13.619 38.699,-21.928 12.008,-8.31 21.989,-18.164 29.944,-29.547 7.954,-11.39 11.932,-25.549 11.932,-42.472 0,-13.85 -2.662,-26.473 -7.986,-37.856 -5.323,-11.39 -12.99,-21.084 -22.986,-29.084 -10.004,-8.008 -22.261,-14.16 -36.779,-18.467 -14.518,-4.306 -30.972,-6.463 -49.361,-6.463 -20.325,0 -38.556,2.309 -54.685,6.924 -16.136,4.617 -27.584,9.537 -34.359,14.774 0.318,5.23 0.885,11.541 1.694,18.927 0.802,7.387 1.769,15.004 2.904,22.854 1.126,7.848 2.336,15.465 3.629,22.852 1.286,7.386 2.579,13.691 3.872,18.927 h 12.582 z" /></g><g
           transform="translate(1552.3081,328.6997)"
           id="g32"><path
             id="path34"
             style="fill:#142649;fill-opacity:1;fill-rule:nonzero;stroke:none"
             d="m 0,0 h 106.95 v -13.388 c -6.459,-2.769 -12.75,-5.078 -18.873,-6.924 -6.133,-1.847 -12.1,-3.391 -17.907,-4.617 L -27.1,-147.731 c 8.06,-10.156 17.338,-21.545 27.826,-34.162 10.48,-12.623 21.452,-25.621 32.907,-39.01 11.448,-13.389 23.229,-26.935 35.326,-40.627 12.1,-13.697 23.956,-26.703 35.571,-39.01 l 23.228,-11.08 v -11.541 H 67.266 l -16.453,11.08 c -19.04,21.237 -37.989,44.161 -56.862,68.788 -18.873,24.619 -37.187,49.548 -54.927,74.789 h -23.712 v -130.188 c 14.835,-2.467 26.934,-6.16 36.295,-11.08 v -13.389 h -122.435 v 13.389 c 12.9,4.92 26.132,8.613 39.682,11.08 v 273.763 c -14.518,1.847 -27.75,5.692 -39.682,11.541 V 0 h 122.435 v -13.388 c -5.165,-2.157 -10.813,-4.234 -16.938,-6.232 -6.132,-2.005 -12.582,-3.773 -19.357,-5.309 v -127.88 l 29.036,6.465 90.495,121.415 c -6.457,1.536 -12.582,3.232 -18.389,5.078 -5.808,1.847 -11.297,3.997 -16.454,6.463 z" /></g><g
           transform="translate(1787.2715,138.4961)"
           id="g36"><path
             id="path38"
             style="fill:#142649;fill-opacity:1;fill-rule:nonzero;stroke:none"
             d="m 0,0 h 97.232 l -38.027,97.873 -9.141,39.702 h -0.96 L 37.066,96.949 Z m 0.227,-132.957 h -107.434 v 13.389 c 11.615,4.92 23.228,8.613 34.844,11.08 L 50.072,195.744 h 14.033 l 122.436,-304.232 c 6.449,-1.235 12.824,-2.619 19.115,-4.157 6.291,-1.543 12.174,-3.851 17.664,-6.923 v -13.389 H 98.465 v 13.389 c 6.449,2.459 13.066,4.617 19.842,6.463 6.775,1.847 13.382,3.382 19.839,4.617 l -32.732,84.482 H -9.627 l -31.766,-84.482 c 13.551,-1.848 27.418,-5.541 41.62,-11.08 z" /></g><g
           transform="translate(2026.5391,372.7671)"
           id="g40"><path
             id="path42"
             style="fill:#142649;fill-opacity:1;fill-rule:nonzero;stroke:none"
             d="m 0,0 h 150.678 v -15.213 c -8.799,-3.148 -17.598,-5.861 -26.397,-8.132 -8.799,-2.279 -17.597,-3.934 -26.396,-4.984 v -311.618 h 126.482 l 32.445,84.461 h 14.299 c 1.1,-7.344 2.106,-15.828 3.026,-25.443 0.91,-9.623 1.648,-19.59 2.199,-29.903 0.549,-10.32 0.824,-20.378 0.824,-30.166 0,-9.794 -0.189,-18.541 -0.549,-26.23 H 0 v 15.215 c 8.797,3.844 16.857,6.638 24.195,8.392 7.33,1.746 14.299,3.149 20.899,4.198 v 311.094 c -8.44,1.393 -16.498,3.23 -24.198,5.509 -7.699,2.27 -14.667,4.803 -20.896,7.607 z" /></g><g
           transform="translate(2419.7012,138.4961)"
           id="g44"><path
             id="path46"
             style="fill:#142649;fill-opacity:1;fill-rule:nonzero;stroke:none"
             d="M 0,0 H 97.232 L 59.207,97.873 50.064,137.575 H 49.105 L 37.066,96.949 Z m 0.227,-132.957 h -107.432 v 13.389 c 11.613,4.92 23.228,8.613 34.842,11.08 L 50.072,195.744 h 14.035 l 122.434,-304.232 c 6.451,-1.235 12.824,-2.619 19.115,-4.157 6.291,-1.543 12.174,-3.851 17.664,-6.923 v -13.389 H 98.465 v 13.389 c 6.451,2.459 13.066,4.617 19.842,6.463 6.775,1.847 13.384,3.382 19.841,4.617 l -32.734,84.482 H -9.625 l -31.766,-84.482 c 13.551,-1.848 27.418,-5.541 41.618,-11.08 z" /></g><g
           transform="translate(2786.2656,26.7754)"
           id="g48"><path
             id="path50"
             style="fill:#142649;fill-opacity:1;fill-rule:nonzero;stroke:none"
             d="m 0,0 c 11.613,0 22.502,1.687 32.664,5.078 10.164,3.383 18.875,8.08 26.133,14.082 7.26,6 12.982,13.229 17.18,21.697 4.189,8.461 6.291,17.616 6.291,27.469 0,12.307 -2.502,22.541 -7.5,30.699 -5.006,8.153 -11.782,14.616 -20.327,19.391 -8.55,4.768 -18.388,8.078 -29.519,9.926 -11.131,1.845 -22.67,2.769 -34.602,2.769 H -45.975 V 3.693 C -41.461,2.461 -36.053,1.537 -29.762,0.924 -23.471,0.303 -13.551,0 0,0 m -21.777,155.117 c 5.482,0 12.015,0.231 19.599,0.694 7.576,0.46 13.791,0.994 18.631,1.615 14.836,4.92 27.018,12.847 36.537,23.775 9.512,10.922 14.276,23.775 14.276,38.549 0,20.313 -6.373,35.547 -19.116,45.704 -12.748,10.156 -29.761,15.234 -51.054,15.234 -10.004,0 -18.555,-0.158 -25.649,-0.461 -7.099,-0.31 -12.908,-0.772 -17.422,-1.385 V 155.117 Z M -129.211,-21.236 v 13.388 c 12.9,5.842 26.133,9.535 39.684,11.08 v 273.764 c -6.459,1.225 -13.067,2.841 -19.842,4.846 -6.776,1.998 -13.391,4.228 -19.842,6.695 v 13.387 h 51.297 c 6.125,0 12.016,0.153 17.664,0.462 5.641,0.303 11.531,0.614 17.664,0.924 6.125,0.303 12.74,0.612 19.84,0.923 7.094,0.303 15.162,0.462 24.197,0.462 12.901,0 26.049,-1.003 39.442,-3.001 13.382,-2.005 25.48,-5.771 36.295,-11.311 10.804,-5.54 19.597,-13.316 26.373,-23.313 6.775,-10.005 10.162,-23.011 10.162,-39.011 0,-8.007 -1.293,-16.006 -3.871,-24.006 -2.586,-8.006 -6.534,-15.465 -11.856,-22.391 -5.324,-6.924 -12.023,-13.006 -20.084,-18.234 -8.068,-5.239 -17.588,-9.082 -28.551,-11.541 v -1.848 c 9.678,-1.543 19.274,-4.154 28.793,-7.848 9.512,-3.693 17.981,-8.699 25.407,-15.003 7.418,-6.313 13.466,-14.081 18.148,-23.315 4.672,-9.232 7.016,-20.312 7.016,-33.238 0,-16.621 -3.871,-30.932 -11.614,-42.936 C 109.369,15.697 99.281,5.844 86.865,-1.846 74.441,-9.543 60.324,-15.162 44.521,-18.697 c -15.81,-3.533 -31.781,-5.309 -47.91,-5.309 -11.297,0 -24.037,0.461 -38.23,1.385 -14.199,0.924 -27.908,1.385 -41.135,1.385 z" /></g><g
           transform="translate(3013.2246,37.3945)"
           id="g52"><path
             id="path54"
             style="fill:#142649;fill-opacity:1;fill-rule:nonzero;stroke:none"
             d="m 0,0 c 3.871,-3.693 8.869,-6.854 15.002,-9.465 6.125,-2.619 15.32,-3.924 27.584,-3.924 10.322,0 20,1.305 29.037,3.924 9.027,2.611 16.854,6.463 23.471,11.541 6.607,5.078 11.855,11.233 15.726,18.467 3.873,7.228 5.809,15.465 5.809,24.699 0,12.307 -3.955,22.621 -11.858,30.932 -7.908,8.308 -17.746,15.695 -29.519,22.158 -11.781,6.463 -24.606,12.768 -38.473,18.928 -13.875,6.154 -26.699,13.461 -38.472,21.929 -11.782,8.461 -21.618,18.618 -29.52,30.469 -7.91,11.846 -11.857,26.698 -11.857,44.55 0,12.927 2.42,24.468 7.259,34.625 4.84,10.157 11.69,18.769 20.567,25.853 8.871,7.076 19.433,12.537 31.699,16.389 12.256,3.844 25.965,5.77 41.133,5.77 19.676,0 37.664,-1.464 53.959,-4.386 16.287,-2.928 29.111,-6.542 38.473,-10.848 0,-5.237 -0.409,-11.311 -1.209,-18.236 -0.811,-6.924 -1.778,-14.081 -2.905,-21.467 -1.135,-7.386 -2.344,-14.542 -3.629,-21.467 -1.293,-6.925 -2.586,-13.006 -3.873,-18.235 h -12.582 l -19.357,63.247 c -5.867,2.46 -13.27,4.306 -22.223,5.54 -8.953,1.226 -18.48,1.846 -28.566,1.846 -16.606,0 -29.959,-4.385 -40.053,-13.157 C 5.527,250.911 0.484,238.676 0.484,222.98 c 0,-12.623 3.971,-23.241 11.924,-31.855 7.955,-8.619 17.936,-16.316 29.944,-23.082 12.007,-6.773 24.916,-13.316 38.707,-19.621 13.793,-6.311 26.693,-13.619 38.699,-21.928 12.008,-8.31 21.99,-18.164 29.943,-29.547 7.955,-11.39 11.934,-25.549 11.934,-42.472 0,-13.85 -2.662,-26.473 -7.987,-37.856 -5.322,-11.39 -12.99,-21.084 -22.986,-29.084 -10.004,-8.008 -22.26,-14.16 -36.779,-18.467 -14.518,-4.306 -30.971,-6.463 -49.362,-6.463 -20.324,0 -38.554,2.309 -54.683,6.924 -16.137,4.617 -27.584,9.537 -34.359,14.774 0.318,5.23 0.884,11.541 1.693,18.927 0.803,7.387 1.769,15.004 2.904,22.854 1.127,7.848 2.336,15.465 3.629,22.852 1.285,7.386 2.578,13.691 3.871,18.927 h 12.584 z" /></g><g
           transform="translate(264.2842,461.9644)"
           id="g56"><path
             id="path58"
             style="fill:#142649;fill-opacity:1;fill-rule:evenodd;stroke:none"
             d="m 0,0 c 4.221,-7.475 8.38,-14.984 12.671,-22.418 70.506,-122.169 141.027,-244.33 211.547,-366.49 12.403,-21.484 24.818,-42.963 37.225,-64.447 0.549,-0.949 1.081,-1.91 1.778,-3.145 H 108.393 c 0,7.795 0.046,15.575 -0.03,23.352 -0.021,2.213 -0.308,4.438 -0.642,6.631 -0.335,2.205 -1.743,3.31 -3.999,3.392 -2.734,0.102 -5.464,0.381 -8.196,0.377 -2.081,-0.003 -2.917,0.805 -2.886,2.883 0.07,4.871 -0.11,9.746 0.066,14.614 0.126,3.474 -0.934,6.384 -3.223,8.88 -6.169,6.725 -12.235,13.555 -18.621,20.069 -3.258,3.326 -4.761,6.746 -4.7,11.545 0.262,20.904 0.127,41.812 0.103,62.718 -0.006,5.678 -0.045,11.36 -0.235,17.034 -0.1,3.015 0.964,5.08 3.423,6.927 8.427,6.334 16.756,12.805 24.948,19.438 1.297,1.049 2.39,3.195 2.41,4.848 0.16,13.675 0.084,27.358 -0.007,41.038 -0.037,5.441 -1.673,6.92 -7.245,6.926 -11.164,0.01 -22.329,0.009 -33.492,0 -4.487,-0.003 -6.558,-1.652 -7.032,-6.177 -0.347,-3.313 -0.253,-6.686 -0.186,-10.029 0.041,-2.007 -0.792,-2.702 -2.705,-2.683 -5.173,0.055 -10.348,0.089 -15.519,-0.019 -2.13,-0.044 -2.909,0.841 -2.935,2.853 -0.045,3.548 -0.205,7.094 -0.289,10.641 -0.065,2.705 -1.28,4.426 -4.053,4.814 -1.7,0.237 -3.409,0.57 -5.114,0.576 -13.193,0.048 -26.387,0.03 -39.58,0.025 -4.926,-0.001 -6.813,-1.678 -7.227,-6.572 -0.264,-3.127 -0.495,-6.268 -0.514,-9.403 -0.012,-2.046 -0.656,-2.964 -2.805,-2.927 -5.072,0.084 -10.148,0.071 -15.222,0.004 -1.946,-0.025 -2.722,0.76 -2.745,2.704 -0.042,3.545 -0.292,7.089 -0.374,10.636 -0.066,2.854 -1.364,4.601 -4.228,5.033 -1.497,0.226 -3.007,0.498 -4.512,0.503 -10.554,0.043 -21.11,0.026 -31.664,0.022 -5.276,-0.001 -7.105,-1.553 -7.252,-7.059 -0.249,-9.33 -0.211,-18.668 -0.241,-28.004 -0.015,-4.258 0.107,-8.52 0.149,-12.781 0.022,-2.28 0.901,-3.973 2.783,-5.407 8.549,-6.515 16.97,-13.197 25.527,-19.703 1.879,-1.429 2.726,-2.982 2.721,-5.349 -0.053,-27.809 0.001,-55.618 -0.118,-83.424 -0.008,-1.729 -0.803,-3.83 -1.953,-5.112 -6.905,-7.699 -13.981,-15.244 -21.087,-22.759 -2.524,-2.67 -3.654,-5.686 -3.603,-9.342 0.069,-4.969 -0.203,-9.943 -0.125,-14.912 0.039,-2.434 -0.878,-3.153 -3.227,-3.09 -2.711,0.072 -5.496,0.016 -8.134,-0.533 -2.865,-0.596 -4.515,-2.252 -4.407,-5.774 0.28,-9.103 0.094,-18.22 0.094,-27.636 h -154.774 v 0.609 c 0.834,1.207 1.759,2.359 2.49,3.627 63.905,110.658 127.799,221.321 191.684,331.991 23.179,40.154 46.335,80.323 69.501,120.485 z" /></g></g></g></g></svg>